<svg xmlns="http://www.w3.org/2000/svg" viewBox="0 0 1705.89 523"><defs><style>.a{fill:#3b97f4;}.b{fill:#fff;}.c{fill:#000}</style></defs><title>logo</title><polygon class="a" points="789 523 120 523 0 0 649 0 789 523"/><path class="b" d="M182.36,312H255v38H120V322.55L188.57,230H123V192H253v26.57Z"/><path class="b" d="M328.33,239.15C328,239,279,263,279,263v87h49"/><path class="b" d="M459.45,189.08q-30.49,0-46.62,23.8-10.55-23.8-40.61-23.8-28.44,0-45.3,21.47L325.32,192H279v47s49,0,49.33.2q7.5-12.48,21.49-12.49,11.21,0,15.19,5.57t4,18V350h50V241.75l-.15-2.05q7.22-13,22-13,10.91,0,15,5.57T460,250V350h49V247.2Q507.68,189.08,459.45,189.08Z"/><path class="b" d="M684,272.07q0,39-16,59.91t-45.22,20.95q-24.07,0-38.8-19.19l-2,16.26H537V150l50-25v79.25q13.71-15.67,35.45-15.67,29.46,0,45.51,21.24t16,59.77Zm-49.1-2.71q0-22.81-6.08-32.54t-18.68-9.73q-16.7,0-23.14,12.72V302.7q6.3,12.58,23.44,12.58,17.43,0,22.12-17Q634.9,290,634.9,269.36Z"/><path class="c" d="M889.09,353.38q-2.64-7.47-3.37-22.12a61.11,61.11,0,0,1-23.51,18.53A72,72,0,0,1,832,356.31q-22.85,0-37-12.74t-14.14-32.23q0-23.14,19.26-36.62t53.69-13.48h31.79v-18q0-17-10.47-26.73t-30.54-9.74q-18.31,0-30.32,9.38t-12,22.56l-17.58-.15q0-18.9,17.58-32.74T845.44,192q26.51,0,41.82,13.26t15.75,37v75q0,23,4.83,34.42v1.76ZM834,340.79a58.84,58.84,0,0,0,31.42-8.5,50,50,0,0,0,20.14-22.71V274.72H854.23q-26.22.3-41,9.59t-14.79,25.56A28.34,28.34,0,0,0,808.31,332Q818.19,340.79,834,340.79Z"/><path class="c" d="M942.71,272.67q0-37.21,16.48-59T1003.94,192q32.37,0,49.22,25.78l.88-22.85h16.41V350.16q0,30.61-17.14,48.49t-46.44,17.87a70.55,70.55,0,0,1-31.57-7.4q-15-7.4-23.66-19.7l9.81-10.55q18.6,22.85,44.24,22.85,22,0,34.28-13t12.74-36V332.88q-16.85,23.44-49.07,23.44-27.54,0-44.24-22T942.71,275Zm17.72,3.08q0,30.32,12.16,47.83t34.28,17.5q32.37,0,45.85-29V238.39q-6.15-15.23-17.72-23.22t-27.83-8q-22.12,0-34.42,17.36T960.43,275.75Z"/><path class="c" d="M1177.52,356.31a68.79,68.79,0,0,1-36.55-10,67.86,67.86,0,0,1-25.42-27.76q-9.08-17.8-9.08-39.92v-6.3q0-22.85,8.86-41.16A70.51,70.51,0,0,1,1140,202.43,60.9,60.9,0,0,1,1174.3,192q28.86,0,45.78,19.7T1237,265.49v9.81H1123.91v3.37q0,27,15.45,44.9t38.89,17.94q14.06,0,24.83-5.13T1222.64,320l11,8.35Q1214.29,356.31,1177.52,356.31ZM1174.3,206.9A43.82,43.82,0,0,0,1141,221.4q-13.55,14.5-16.48,39h95.07v-1.9q-.74-22.85-13-37.21T1174.3,206.9Z"/><path class="c" d="M1287.82,194.89l.59,27.1q8.93-14.65,22.27-22.34a57.85,57.85,0,0,1,29.44-7.69q25.49,0,37.94,14.36t12.6,43.07v104h-17.43V249.23q-.15-21.24-9-31.64t-28.34-10.4a44.34,44.34,0,0,0-28.78,10.18q-12.52,10.18-18.53,27.47V353.38h-17.43V194.89Z"/><path class="c" d="M1494.51,341.52q18.31,0,30.69-10.33a36.35,36.35,0,0,0,13.4-26.73h16.85a49.64,49.64,0,0,1-9.08,26.44,56.87,56.87,0,0,1-22.19,18.68,66.89,66.89,0,0,1-29.66,6.74q-31.2,0-49.44-21.68t-18.24-58.3v-5.27q0-23.44,8.2-41.46t23.51-27.83q15.3-9.81,35.82-9.81,26.07,0,43,15.53t18.09,40.87h-16.85q-1.17-18.6-13.4-30t-30.83-11.43q-23.73,0-36.84,17.14t-13.11,48v5.13q0,30.32,13.11,47.31T1494.51,341.52Z"/><path class="c" d="M1640.71,328.19,1687,194.89h18.9l-67.68,185.45-3.52,8.2q-13,28.86-40.28,28.86a49.19,49.19,0,0,1-13.48-2.05l-.15-14.5,9.08.88q12.89,0,20.87-6.37t13.55-21.9l7.76-21.39L1572.3,194.89h19.19Z"/></svg>
